<?xml version="1.0" encoding="utf-8"?>
<!-- Generator: Adobe Illustrator 21.1.0, SVG Export Plug-In . SVG Version: 6.00 Build 0)  -->
<svg version="1.1" id="Layer_1" xmlns="http://www.w3.org/2000/svg" xmlns:xlink="http://www.w3.org/1999/xlink" x="0px" y="0px"
	 viewBox="0 0 588.4 233.8" style="enable-background:new 0 0 588.4 233.8;" xml:space="preserve">
<style type="text/css">
	.st0{fill:#123F6D;}
</style>
<g>
	<g>
		<polygon class="st0" points="2.7,181.3 30.4,181.3 30.4,186.9 9.4,186.9 9.4,204 28.8,204 28.8,209.5 9.4,209.5 9.4,232.8 
			2.7,232.8 		"/>
		<path class="st0" d="M45.1,185.5c0.1,2.3-1.6,4.1-4.3,4.1c-2.4,0-4-1.8-4-4.1c0-2.4,1.8-4.2,4.2-4.2
			C43.5,181.3,45.1,183.1,45.1,185.5L45.1,185.5z M37.7,232.8v-37h6.7v37H37.7L37.7,232.8z"/>
		<path class="st0" d="M55.5,205.8c0-3.8-0.1-6.9-0.3-10h6l0.4,6.1h0.2c1.8-3.5,6.1-6.9,12.2-6.9c5.1,0,13,3.1,13,15.7v22.1h-6.7
			v-21.3c0-6-2.2-10.9-8.5-10.9c-4.4,0-7.9,3.1-9,6.9c-0.3,0.8-0.5,2-0.5,3.1v22.2h-6.8V205.8L55.5,205.8z"/>
		<path class="st0" d="M118.3,232.8l-0.5-4.7h-0.2c-2.1,2.9-6,5.5-11.3,5.5c-7.5,0-11.3-5.3-11.3-10.6c0-8.9,7.9-13.8,22.2-13.7
			v-0.8c0-3.1-0.8-8.5-8.4-8.5c-3.4,0-7,1.1-9.6,2.7l-1.5-4.4c3.1-2,7.5-3.3,12.1-3.3c11.3,0,14,7.7,14,15.1v13.8
			c0,3.2,0.2,6.3,0.6,8.9H118.3L118.3,232.8z M117.3,213.9c-7.3-0.2-15.6,1.1-15.6,8.3c0,4.3,2.9,6.4,6.3,6.4c4.8,0,7.9-3.1,8.9-6.2
			c0.2-0.7,0.4-1.4,0.4-2.1L117.3,213.9L117.3,213.9z"/>
		<path class="st0" d="M134.7,205.8c0-3.8-0.1-6.9-0.3-10h6l0.4,6.1h0.2c1.8-3.5,6.1-6.9,12.2-6.9c5.1,0,13,3.1,13,15.7v22.1h-6.7
			v-21.3c0-6-2.2-10.9-8.5-10.9c-4.4,0-7.9,3.1-9,6.9c-0.3,0.8-0.5,2-0.5,3.1v22.2h-6.7L134.7,205.8L134.7,205.8z"/>
		<path class="st0" d="M203.3,231.4c-1.8,0.9-5.6,2.1-10.6,2.1c-11.1,0-18.4-7.6-18.4-18.8c0-11.4,7.8-19.6,19.8-19.6
			c4,0,7.5,1,9.3,1.9l-1.5,5.2c-1.6-0.9-4.1-1.8-7.8-1.8c-8.5,0-13,6.3-13,14c0,8.5,5.5,13.8,12.8,13.8c3.8,0,6.3-1,8.2-1.8
			L203.3,231.4L203.3,231.4z"/>
		<path class="st0" d="M218.7,185.5c0.1,2.3-1.6,4.1-4.3,4.1c-2.4,0-4-1.8-4-4.1c0-2.4,1.8-4.2,4.2-4.2
			C217.1,181.3,218.7,183.1,218.7,185.5L218.7,185.5z M211.2,232.8v-37h6.7v37H211.2L211.2,232.8z"/>
		<path class="st0" d="M249.5,232.8l-0.5-4.7h-0.2c-2.1,2.9-6,5.5-11.3,5.5c-7.5,0-11.3-5.3-11.3-10.6c0-8.9,7.9-13.8,22.2-13.7
			v-0.8c0-3.1-0.8-8.5-8.4-8.5c-3.4,0-7,1.1-9.6,2.7l-1.5-4.4c3.1-2,7.5-3.3,12.1-3.3c11.3,0,14,7.7,14,15.1v13.8
			c0,3.2,0.2,6.3,0.6,8.9H249.5L249.5,232.8z M248.5,213.9c-7.3-0.2-15.6,1.1-15.6,8.3c0,4.3,2.9,6.4,6.3,6.4c4.8,0,7.9-3.1,8.9-6.2
			c0.2-0.7,0.4-1.4,0.4-2.1L248.5,213.9L248.5,213.9z"/>
		<polygon class="st0" points="265.8,178.6 272.5,178.6 272.5,232.8 265.8,232.8 		"/>
	</g>
	<path class="st0" d="M388,19.7h-32.4l-33.9,90.6l-22.2-32.4l39.6-58.1h-36.3l-21.8,38L249.5,4.4H212l50.9,73.5l-22.4,32.9
		l-34.1-91.1H174l-37.6,100.6V19.7H89.5l-21.1,81.6h-0.3L47,0H0v142.2h30v-93h0.3L56,142.1h24.3L106,49.2h0.3v92.9h21.8h8.2h24.6
		l7.7-21.9h42.7l7.5,21.9h0.4h32.9h3.8l25-40.8l39.4,63.9H359l-16.3-23.9l7.4-21.1h42.7l7.5,21.9h33.3L388,19.7z M176.1,96.5
		L190,53.6h0.3l13.5,42.9H176.1z M357.7,96.5l13.9-42.9h0.3l13.5,42.9H357.7z"/>
	<g>
		<path class="st0" d="M303.4,199.7h-1.9l7.3-16.9h1.7l7.2,16.9h-1.9l-1.9-4.4h-8.7L303.4,199.7z M305.8,193.7h7.4l-3.7-9
			L305.8,193.7z"/>
	</g>
	<g>
		<path class="st0" d="M325.7,182.8h5.6c1,0,2.1,0.2,3.2,0.5c1.1,0.4,2,0.9,2.9,1.6c0.8,0.7,1.5,1.6,2.1,2.6
			c0.5,1.1,0.8,2.3,0.8,3.7s-0.3,2.6-0.8,3.7s-1.2,1.9-2.1,2.6c-0.8,0.7-1.8,1.2-2.9,1.6c-1.1,0.3-2.1,0.5-3.2,0.5h-5.6V182.8z
			 M327.4,198.2h3.4c1.3,0,2.4-0.2,3.3-0.6c0.9-0.4,1.7-0.9,2.3-1.6c0.6-0.6,1.1-1.4,1.4-2.2s0.5-1.7,0.5-2.5c0-0.9-0.2-1.7-0.5-2.5
			s-0.8-1.6-1.4-2.2c-0.6-0.6-1.4-1.2-2.3-1.6c-0.9-0.4-2.1-0.6-3.3-0.6h-3.4V198.2z"/>
		<path class="st0" d="M345.4,199.7h-1.7v-16.9h1.7V199.7z"/>
		<path class="st0" d="M355.1,197.5L355.1,197.5l5.5-14.6h1.8l-6.5,16.9h-1.8l-6.4-16.9h1.9L355.1,197.5z"/>
		<path class="st0" d="M366.5,199.7h-1.7v-16.9h1.7V199.7z"/>
		<path class="st0" d="M379.1,185.5c-0.4-0.5-0.8-0.9-1.4-1.2s-1.3-0.5-2.1-0.5c-0.4,0-0.8,0.1-1.3,0.2c-0.4,0.1-0.8,0.3-1.2,0.6
			c-0.3,0.3-0.6,0.6-0.8,1c-0.2,0.4-0.3,0.9-0.3,1.4s0.1,1,0.3,1.3c0.2,0.4,0.5,0.6,0.8,0.9c0.3,0.2,0.7,0.4,1.2,0.6
			c0.4,0.2,0.9,0.3,1.4,0.5c0.6,0.2,1.2,0.4,1.8,0.6c0.6,0.2,1.1,0.5,1.6,0.9s0.9,0.8,1.2,1.4c0.3,0.5,0.5,1.2,0.5,2.1
			c0,0.8-0.2,1.6-0.5,2.2c-0.3,0.6-0.7,1.1-1.3,1.5c-0.5,0.4-1.1,0.7-1.8,0.9s-1.3,0.3-2,0.3c-0.5,0-1-0.1-1.5-0.2
			c-0.5-0.1-1-0.3-1.5-0.5s-0.9-0.5-1.3-0.8s-0.7-0.7-1-1.1l1.5-1.1c0.4,0.6,0.9,1.1,1.5,1.5c0.7,0.4,1.4,0.6,2.3,0.6
			c0.4,0,0.9-0.1,1.3-0.2c0.4-0.1,0.8-0.3,1.2-0.6c0.4-0.3,0.6-0.6,0.9-1c0.2-0.4,0.3-0.9,0.3-1.4c0-0.6-0.1-1.1-0.3-1.5
			c-0.2-0.4-0.5-0.7-0.9-1s-0.8-0.5-1.3-0.7s-1-0.4-1.5-0.5c-0.6-0.2-1.1-0.4-1.6-0.6c-0.5-0.2-1-0.5-1.5-0.9
			c-0.4-0.4-0.8-0.8-1-1.3c-0.3-0.5-0.4-1.2-0.4-1.9c0-0.8,0.2-1.5,0.5-2.1s0.8-1.1,1.3-1.5s1.1-0.7,1.7-0.8s1.3-0.3,1.9-0.3
			c1.1,0,2.1,0.2,2.9,0.6c0.8,0.4,1.4,0.9,1.8,1.4L379.1,185.5z"/>
		<path class="st0" d="M386.1,199.7h-1.7v-16.9h1.7V199.7z"/>
		<path class="st0" d="M407.2,191.3c0,1.3-0.2,2.5-0.7,3.5c-0.4,1.1-1.1,2-1.8,2.8c-0.8,0.8-1.7,1.4-2.8,1.8
			c-1.1,0.4-2.2,0.7-3.5,0.7s-2.4-0.2-3.5-0.7c-1.1-0.4-2-1.1-2.8-1.8c-0.8-0.8-1.4-1.7-1.8-2.8s-0.7-2.3-0.7-3.5
			c0-1.3,0.2-2.5,0.7-3.5c0.4-1.1,1.1-2,1.8-2.8s1.7-1.4,2.8-1.8c1.1-0.4,2.2-0.7,3.5-0.7s2.4,0.2,3.5,0.7c1.1,0.4,2,1.1,2.8,1.8
			c0.8,0.8,1.4,1.7,1.8,2.8C407,188.8,407.2,190,407.2,191.3z M405.4,191.3c0-1-0.2-1.9-0.5-2.8c-0.3-0.9-0.8-1.7-1.4-2.3
			c-0.6-0.7-1.3-1.2-2.2-1.6c-0.9-0.4-1.8-0.6-2.9-0.6s-2.1,0.2-2.9,0.6c-0.9,0.4-1.6,0.9-2.2,1.6c-0.6,0.7-1.1,1.5-1.4,2.3
			c-0.3,0.9-0.5,1.8-0.5,2.8s0.2,1.9,0.5,2.8c0.3,0.9,0.8,1.7,1.4,2.3c0.6,0.7,1.3,1.2,2.2,1.6c0.9,0.4,1.8,0.6,2.9,0.6
			s2.1-0.2,2.9-0.6c0.9-0.4,1.6-0.9,2.2-1.6c0.6-0.7,1.1-1.4,1.4-2.3C405.3,193.2,405.4,192.3,405.4,191.3z"/>
		<path class="st0" d="M422.8,197.2L422.8,197.2v-14.4h1.7v16.9h-2.1l-9.8-14.5l0,0v14.5h-1.7v-16.9h2.1L422.8,197.2z"/>
		<path class="st0" d="M451.6,191.3c0,1.3-0.2,2.5-0.7,3.5c-0.4,1.1-1.1,2-1.8,2.8c-0.8,0.8-1.7,1.4-2.8,1.8
			c-1.1,0.4-2.2,0.7-3.5,0.7s-2.4-0.2-3.5-0.7c-1.1-0.4-2-1.1-2.8-1.8c-0.8-0.8-1.4-1.7-1.8-2.8s-0.7-2.3-0.7-3.5
			c0-1.3,0.2-2.5,0.7-3.5c0.4-1.1,1.1-2,1.8-2.8s1.7-1.4,2.8-1.8c1.1-0.4,2.2-0.7,3.5-0.7s2.4,0.2,3.5,0.7c1.1,0.4,2,1.1,2.8,1.8
			c0.8,0.8,1.4,1.7,1.8,2.8C451.4,188.8,451.6,190,451.6,191.3z M449.8,191.3c0-1-0.2-1.9-0.5-2.8c-0.3-0.9-0.8-1.7-1.4-2.3
			c-0.6-0.7-1.3-1.2-2.2-1.6c-0.9-0.4-1.8-0.6-2.9-0.6s-2.1,0.2-2.9,0.6c-0.9,0.4-1.6,0.9-2.2,1.6c-0.6,0.7-1.1,1.5-1.4,2.3
			c-0.3,0.9-0.5,1.8-0.5,2.8s0.2,1.9,0.5,2.8c0.3,0.9,0.8,1.7,1.4,2.3c0.6,0.7,1.3,1.2,2.2,1.6c0.9,0.4,1.8,0.6,2.9,0.6
			s2.1-0.2,2.9-0.6c0.9-0.4,1.6-0.9,2.2-1.6c0.6-0.7,1.1-1.4,1.4-2.3C449.7,193.2,449.8,192.3,449.8,191.3z"/>
		<path class="st0" d="M456.9,199.7h-1.7v-16.9h10.2v1.5h-8.5v5.8h7.9v1.5h-7.9V199.7z"/>
	</g>
	<g>
		<path class="st0" d="M306.4,230.8L306.4,230.8l4.3-14.5h2l4.2,14.5l0,0l4.1-14.5h1.8l-5,16.9h-2l-4.2-14.5l0,0l-4.2,14.5h-2
			l-5-16.9h1.8L306.4,230.8z"/>
		<path class="st0" d="M327.2,231.7h9v1.5h-10.7v-16.9H336v1.5h-8.7v5.8h8.2v1.5h-8.2L327.2,231.7L327.2,231.7z"/>
		<path class="st0" d="M347.7,219.1c-0.4-0.5-0.8-0.9-1.4-1.2s-1.3-0.5-2.1-0.5c-0.4,0-0.8,0.1-1.3,0.2c-0.4,0.1-0.8,0.3-1.2,0.6
			c-0.3,0.3-0.6,0.6-0.8,1c-0.2,0.4-0.3,0.9-0.3,1.4s0.1,1,0.3,1.3c0.2,0.4,0.5,0.6,0.8,0.9c0.3,0.2,0.7,0.4,1.2,0.6
			c0.4,0.2,0.9,0.3,1.4,0.5c0.6,0.2,1.2,0.4,1.8,0.6c0.6,0.2,1.1,0.5,1.6,0.9s0.9,0.8,1.2,1.4c0.3,0.5,0.5,1.2,0.5,2.1
			c0,0.8-0.2,1.6-0.5,2.2c-0.3,0.6-0.7,1.1-1.3,1.5c-0.5,0.4-1.1,0.7-1.8,0.9c-0.7,0.2-1.3,0.3-2,0.3c-0.5,0-1-0.1-1.5-0.2
			c-0.5-0.1-1-0.3-1.5-0.5s-0.9-0.5-1.3-0.8s-0.7-0.7-1-1.1l1.5-1.1c0.4,0.6,0.9,1.1,1.5,1.5c0.7,0.4,1.4,0.6,2.3,0.6
			c0.4,0,0.9-0.1,1.3-0.2c0.4-0.1,0.8-0.3,1.2-0.6c0.4-0.3,0.7-0.6,0.9-1c0.2-0.4,0.3-0.9,0.3-1.4c0-0.6-0.1-1.1-0.3-1.5
			c-0.2-0.4-0.5-0.7-0.9-1s-0.8-0.5-1.3-0.7s-1-0.4-1.5-0.5c-0.6-0.2-1.1-0.4-1.6-0.6c-0.5-0.2-1-0.5-1.5-0.9
			c-0.4-0.4-0.8-0.8-1-1.3c-0.3-0.5-0.4-1.2-0.4-1.9c0-0.8,0.2-1.5,0.5-2.1s0.7-1.1,1.3-1.5c0.5-0.4,1.1-0.7,1.7-0.8
			c0.6-0.2,1.3-0.3,1.9-0.3c1.1,0,2.1,0.2,2.9,0.6c0.8,0.4,1.4,0.9,1.8,1.4L347.7,219.1z"/>
	</g>
	<g>
		<path class="st0" d="M358,233.2h-1.7v-15.3h-5.6v-1.5h13v1.5h-5.6L358,233.2L358,233.2z"/>
	</g>
	<g>
		<path class="st0" d="M382.1,224.8c0,1.3-0.2,2.5-0.7,3.5c-0.4,1.1-1.1,2-1.8,2.8c-0.8,0.8-1.7,1.4-2.8,1.8
			c-1.1,0.4-2.2,0.7-3.5,0.7s-2.4-0.2-3.5-0.7c-1.1-0.4-2-1.1-2.8-1.8c-0.8-0.8-1.4-1.7-1.8-2.8s-0.7-2.3-0.7-3.5
			c0-1.3,0.2-2.5,0.7-3.5c0.4-1.1,1.1-2,1.8-2.8c0.8-0.8,1.7-1.4,2.8-1.8c1.1-0.4,2.2-0.7,3.5-0.7s2.4,0.2,3.5,0.7
			c1.1,0.4,2,1.1,2.8,1.8s1.4,1.7,1.8,2.8C381.9,222.3,382.1,223.5,382.1,224.8z M380.3,224.8c0-1-0.2-1.9-0.5-2.8
			c-0.3-0.9-0.8-1.7-1.4-2.3c-0.6-0.7-1.3-1.2-2.2-1.6c-0.9-0.4-1.8-0.6-2.9-0.6s-2.1,0.2-2.9,0.6c-0.9,0.4-1.6,0.9-2.2,1.6
			c-0.6,0.7-1.1,1.5-1.4,2.3s-0.5,1.8-0.5,2.8s0.2,1.9,0.5,2.8s0.8,1.7,1.4,2.3c0.6,0.7,1.3,1.2,2.2,1.6c0.9,0.4,1.8,0.6,2.9,0.6
			s2.1-0.2,2.9-0.6c0.9-0.4,1.6-0.9,2.2-1.6c0.6-0.7,1.1-1.4,1.4-2.3C380.1,226.7,380.3,225.8,380.3,224.8z"/>
		<path class="st0" d="M385.7,216.3h5c0.6,0,1.3,0.1,1.9,0.2c0.7,0.1,1.2,0.4,1.8,0.7c0.5,0.3,0.9,0.8,1.3,1.3s0.5,1.3,0.5,2.1
			c0,0.9-0.3,1.7-0.8,2.3c-0.5,0.7-1.3,1.1-2.2,1.3l0,0c1.1,0.1,2,0.6,2.7,1.3s1.1,1.7,1.1,2.9c0,0.7-0.1,1.3-0.4,1.9
			c-0.3,0.6-0.7,1.1-1.2,1.5s-1.2,0.7-2,0.9s-1.6,0.3-2.6,0.3h-5L385.7,216.3L385.7,216.3z M387.4,223.7h3.5c0.4,0,0.8,0,1.3-0.1
			c0.4-0.1,0.8-0.3,1.2-0.5c0.4-0.2,0.6-0.5,0.8-0.9c0.2-0.4,0.3-0.9,0.3-1.4s-0.1-1-0.3-1.4c-0.2-0.4-0.5-0.7-0.9-0.9
			s-0.8-0.4-1.3-0.5s-1-0.2-1.6-0.2h-3V223.7z M387.4,231.7h3.2c0.6,0,1.2-0.1,1.8-0.2c0.6-0.1,1.1-0.3,1.5-0.6s0.8-0.6,1-1
			c0.3-0.4,0.4-0.9,0.4-1.5c0-1.1-0.4-1.9-1.1-2.5c-0.8-0.5-1.8-0.8-3.2-0.8h-3.5L387.4,231.7L387.4,231.7z"/>
		<path class="st0" d="M400.7,233.2h-1.9l7.3-16.9h1.7l7.2,16.9h-1.9l-1.9-4.4h-8.7L400.7,233.2z M403.2,227.2h7.4l-3.7-9
			L403.2,227.2z"/>
	</g>
	<g>
		<path class="st0" d="M437.2,230.5c-0.3,0.4-0.6,0.8-1,1.2s-0.9,0.7-1.4,1s-1.1,0.5-1.8,0.7c-0.6,0.2-1.3,0.3-2.1,0.3
			c-1.3,0-2.4-0.2-3.5-0.7c-1.1-0.4-2-1.1-2.8-1.8c-0.8-0.8-1.4-1.7-1.8-2.8s-0.7-2.3-0.7-3.5c0-1.3,0.2-2.5,0.7-3.5
			c0.4-1.1,1.1-2,1.8-2.8c0.8-0.8,1.7-1.4,2.8-1.8c1.1-0.4,2.2-0.7,3.5-0.7c0.6,0,1.2,0.1,1.8,0.2c0.6,0.1,1.2,0.3,1.7,0.5
			s1,0.5,1.4,0.8s0.8,0.7,1.1,1.1l-1.4,1c-0.2-0.3-0.4-0.5-0.7-0.8c-0.3-0.3-0.6-0.5-1-0.7s-0.8-0.4-1.3-0.5s-1-0.2-1.5-0.2
			c-1.1,0-2.1,0.2-2.9,0.6c-0.9,0.4-1.6,0.9-2.2,1.6c-0.6,0.7-1.1,1.5-1.4,2.3c-0.3,0.9-0.5,1.8-0.5,2.8s0.2,1.9,0.5,2.8
			s0.8,1.7,1.4,2.3c0.6,0.7,1.3,1.2,2.2,1.6c0.9,0.4,1.8,0.6,2.9,0.6c1,0,1.9-0.2,2.8-0.6c0.9-0.4,1.6-1,2.2-1.9L437.2,230.5z"/>
		<path class="st0" d="M441.9,233.2h-1.7v-16.9h5c0.8,0,1.6,0.1,2.3,0.2c0.7,0.2,1.3,0.4,1.8,0.8c0.5,0.4,0.9,0.8,1.2,1.4
			s0.4,1.3,0.4,2.1c0,0.6-0.1,1.2-0.3,1.7c-0.2,0.5-0.5,0.9-0.9,1.3c-0.4,0.4-0.8,0.7-1.4,0.9c-0.5,0.2-1.1,0.4-1.7,0.4l4.9,8h-2.1
			l-4.7-7.9h-2.9v8H441.9z M441.9,223.8h3c1.4,0,2.4-0.2,3.2-0.7c0.7-0.5,1.1-1.3,1.1-2.3c0-0.6-0.1-1-0.3-1.4
			c-0.2-0.4-0.5-0.7-0.9-0.9s-0.8-0.4-1.3-0.5s-1.1-0.2-1.7-0.2h-3v6H441.9z"/>
		<path class="st0" d="M456.2,231.7h9v1.5h-10.7v-16.9H465v1.5h-8.7v5.8h8.2v1.5h-8.2L456.2,231.7L456.2,231.7z"/>
		<path class="st0" d="M468.5,216.3h5.6c1,0,2.1,0.2,3.2,0.5c1.1,0.4,2,0.9,2.9,1.6c0.9,0.7,1.5,1.6,2.1,2.6
			c0.5,1.1,0.8,2.3,0.8,3.7s-0.3,2.6-0.8,3.7s-1.2,1.9-2.1,2.6c-0.9,0.7-1.8,1.2-2.9,1.6c-1.1,0.3-2.1,0.5-3.2,0.5h-5.6V216.3z
			 M470.3,231.7h3.4c1.3,0,2.4-0.2,3.3-0.6c0.9-0.4,1.7-0.9,2.3-1.6c0.6-0.6,1.1-1.4,1.4-2.2s0.5-1.7,0.5-2.5c0-0.9-0.2-1.7-0.5-2.5
			s-0.8-1.6-1.4-2.2c-0.6-0.6-1.4-1.2-2.3-1.6c-0.9-0.4-2.1-0.6-3.3-0.6h-3.4V231.7z"/>
		<path class="st0" d="M488.3,233.2h-1.7v-16.9h1.7V233.2z"/>
		<path class="st0" d="M498.2,233.2h-1.7v-15.3h-5.6v-1.5h13v1.5h-5.6L498.2,233.2L498.2,233.2z"/>
	</g>
	<g>
		<path class="st0" d="M517.9,233.6c-1.3,0-2.3-0.2-3.1-0.7c-0.8-0.4-1.5-1-1.9-1.7c-0.5-0.7-0.8-1.4-1-2.2s-0.3-1.5-0.3-2.2v-10.6
			h1.7v10.4c0,0.7,0.1,1.3,0.2,2c0.2,0.6,0.4,1.2,0.8,1.7s0.8,0.9,1.4,1.2c0.6,0.3,1.3,0.5,2.2,0.5s1.6-0.2,2.2-0.5
			c0.6-0.3,1.1-0.7,1.4-1.2c0.4-0.5,0.6-1.1,0.8-1.7c0.2-0.6,0.2-1.3,0.2-2v-10.4h1.7v10.6c0,0.7-0.1,1.4-0.3,2.2s-0.5,1.5-1,2.2
			s-1.1,1.2-1.9,1.7C520.2,233.4,519.2,233.6,517.9,233.6z"/>
		<path class="st0" d="M540.6,230.7L540.6,230.7v-14.4h1.7v16.9h-2.1l-9.8-14.5l0,0v14.5h-1.7v-16.9h2.1L540.6,230.7z"/>
		<path class="st0" d="M548.6,233.2h-1.7v-16.9h1.7V233.2z"/>
		<path class="st0" d="M569.7,224.8c0,1.3-0.2,2.5-0.7,3.5c-0.4,1.1-1.1,2-1.8,2.8c-0.8,0.8-1.7,1.4-2.8,1.8
			c-1.1,0.4-2.2,0.7-3.5,0.7s-2.4-0.2-3.5-0.7c-1.1-0.4-2-1.1-2.8-1.8c-0.8-0.8-1.4-1.7-1.8-2.8c-0.4-1.1-0.7-2.3-0.7-3.5
			c0-1.3,0.2-2.5,0.7-3.5c0.4-1.1,1.1-2,1.8-2.8s1.7-1.4,2.8-1.8c1.1-0.4,2.2-0.7,3.5-0.7s2.4,0.2,3.5,0.7c1.1,0.4,2,1.1,2.8,1.8
			s1.4,1.7,1.8,2.8C569.5,222.3,569.7,223.5,569.7,224.8z M567.9,224.8c0-1-0.2-1.9-0.5-2.8c-0.3-0.9-0.8-1.7-1.4-2.3
			c-0.6-0.7-1.3-1.2-2.2-1.6c-0.9-0.4-1.8-0.6-2.9-0.6c-1.1,0-2.1,0.2-2.9,0.6c-0.9,0.4-1.6,0.9-2.2,1.6c-0.6,0.7-1.1,1.5-1.4,2.3
			s-0.5,1.8-0.5,2.8s0.2,1.9,0.5,2.8s0.8,1.7,1.4,2.3c0.6,0.7,1.3,1.2,2.2,1.6c0.9,0.4,1.8,0.6,2.9,0.6c1.1,0,2.1-0.2,2.9-0.6
			c0.9-0.4,1.6-0.9,2.2-1.6c0.6-0.7,1.1-1.4,1.4-2.3C567.7,226.7,567.9,225.8,567.9,224.8z"/>
		<path class="st0" d="M585.2,230.7L585.2,230.7v-14.4h1.7v16.9h-2.1l-9.8-14.5l0,0v14.5h-1.7v-16.9h2.1L585.2,230.7z"/>
	</g>
</g>
</svg>
